# xmcd
#
# Track frame offsets:
#        150
#        21389
#        39044
#        63342
#        83826
#        104639
#        125917
#        149427
#        167216
#        186113
#        200506
#        229484
#        251845
#        284968
#        304566
#
# Disc length: 4387 seconds
#
# Revision: 5
# Processed by: cddbd v1.5.1PL0 Copyright (c) Steve Scherf et al.
# Submitted via: ExactAudioCopy v0.95b2
#
DISCID=e811210f
DTITLE=Eric Clapton - Clapton Chronicles - The Best Of Eric Clapton
DYEAR=1999
DGENRE=Rock
TTITLE0=Blue Eyes Blue
TTITLE1=Change The World
TTITLE2=My Father's Eyes
TTITLE3=Teras In Heaven
TTITLE4=Layla
TTITLE5=Pretending
TTITLE6=Bad Love
TTITLE7=Before You Accuse Me (Take A Look At Yourself)
TTITLE8=It's In The Way That You Use It
TTITLE9=Forever Man
TTITLE10=Running On Faith
TTITLE11=She's Waiting
TTITLE12=River Of Tears
TTITLE13=(I) Get Lost
TTITLE14=Wonderful Tonight (Live Edit)
EXTD=
EXTT0=
EXTT1=
EXTT2=
EXTT3=
EXTT4=
EXTT5=
EXTT6=
EXTT7=
EXTT8=
EXTT9=
EXTT10=
EXTT11=
EXTT12=
EXTT13=
EXTT14=
PLAYORDER=
